<svg xmlns="http://www.w3.org/2000/svg" xmlns:xlink="http://www.w3.org/1999/xlink" width="200" zoomAndPan="magnify" viewBox="0 0 150 74.999997" height="100" preserveAspectRatio="xMidYMid meet" version="1.0"><defs><g/><clipPath id="e05744e3b5"><path d="M 9 12 L 55.5 12 L 55.5 65 L 9 65 Z M 9 12 " clip-rule="nonzero"/></clipPath><clipPath id="19213c10f7"><path d="M 0 9.925781 L 45 9.925781 L 45 65.425781 L 0 65.425781 Z M 0 9.925781 " clip-rule="nonzero"/></clipPath></defs><g clip-path="url(#e05744e3b5)"><path fill="#75ad4e" d="M 44.0625 60.128906 C 52.476562 54.003906 57.082031 43.378906 55.003906 32.480469 C 53.234375 23.214844 47.050781 15.910156 39.046875 12.335938 C 41.316406 14.785156 45.261719 16.699219 46.253906 23.699219 C 47.523438 32.664062 39.0625 37.835938 37.464844 44.355469 C 35.222656 53.503906 40.84375 53.921875 46.902344 48.863281 C 43.039062 55.46875 37.929688 57.515625 31.011719 58.992188 C 22.503906 60.097656 14.371094 56.167969 9.808594 49.382812 C 9.925781 49.628906 10.046875 49.875 10.171875 50.117188 C 14.089844 57.757812 21.074219 63.503906 29.582031 64.1875 C 35.429688 64.652344 40.59375 62.652344 44.0625 60.128906 Z M 44.0625 60.128906 " fill-opacity="1" fill-rule="evenodd"/></g><g clip-path="url(#19213c10f7)"><path fill="#e4b704" d="M 32.949219 64.929688 C 7.875 66.789062 -5.863281 26.550781 20.117188 16.414062 L 13.964844 39.488281 C 19.121094 38.585938 24.457031 37.828125 29.738281 36.835938 C 29.203125 41.691406 27.074219 49.21875 26.027344 54.273438 C 28.636719 51.179688 39.816406 34.113281 44.007812 27.960938 C 42.625 28.257812 26.011719 31.886719 26.457031 30.84375 C 27.316406 27.902344 29.332031 23.628906 30.617188 20.65625 C 31.988281 17.488281 33.4375 13.980469 34.96875 10.882812 C 31.039062 9.820312 26.816406 9.609375 22.550781 10.425781 C 7.5 13.292969 -2.375 27.824219 0.496094 42.875 C 3.367188 57.929688 17.898438 67.800781 32.949219 64.929688 Z M 32.949219 64.929688 " fill-opacity="1" fill-rule="evenodd"/></g><g fill="#ffffff" fill-opacity="1"><g transform="translate(51.038278, 26.433539)"><g><path d="M 7.90625 -15.25 L 11.71875 -15.25 L 11.71875 0 L 8.15625 0 L 4.75 -8.015625 L 4.75 0 L 0.953125 0 L 0.953125 -15.25 L 4.515625 -15.25 L 7.90625 -7.109375 Z M 7.90625 -15.25 "/></g></g></g><g fill="#ffffff" fill-opacity="1"><g transform="translate(65.728771, 26.433539)"><g><path d="M 8.71875 0 L 8.25 -2.28125 L 4.59375 -2.28125 L 4.09375 0 L 0 0 L 3.921875 -15.25 L 8.984375 -15.25 L 12.90625 0 Z M 5.234375 -5.234375 L 7.609375 -5.234375 L 6.4375 -10.71875 Z M 5.234375 -5.234375 "/></g></g></g><g fill="#ffffff" fill-opacity="1"><g transform="translate(80.656974, 26.433539)"><g><path d="M 10.140625 -15.25 L 10.140625 -12.28125 L 7.203125 -12.28125 L 7.203125 0 L 3.046875 0 L 3.046875 -12.28125 L 0.125 -12.28125 L 0.125 -15.25 Z M 10.140625 -15.25 "/></g></g></g><g fill="#ffffff" fill-opacity="1"><g transform="translate(92.946618, 26.433539)"><g><path d="M 7.296875 -15.25 L 11.453125 -15.25 L 11.453125 -2.953125 C 11.453125 -0.984375 10.289062 0 7.96875 0 L 4.4375 0 C 2.113281 0 0.953125 -0.984375 0.953125 -2.953125 L 0.953125 -15.25 L 5.109375 -15.25 L 5.109375 -3.5 C 5.109375 -3.144531 5.304688 -2.96875 5.703125 -2.96875 L 6.703125 -2.96875 C 7.097656 -2.96875 7.296875 -3.144531 7.296875 -3.5 Z M 7.296875 -15.25 "/></g></g></g><g fill="#ffffff" fill-opacity="1"><g transform="translate(107.375636, 26.433539)"><g><path d="M 5.109375 -5.421875 L 5.109375 0 L 0.953125 0 L 0.953125 -15.25 L 8.015625 -15.25 C 10.335938 -15.25 11.5 -14.269531 11.5 -12.3125 L 11.5 -8.359375 C 11.5 -6.859375 10.816406 -5.929688 9.453125 -5.578125 L 12.265625 0 L 7.796875 0 L 5.375 -5.421875 Z M 6.75 -12.28125 L 5.109375 -12.28125 L 5.109375 -8.25 L 6.75 -8.25 C 7.144531 -8.25 7.34375 -8.421875 7.34375 -8.765625 L 7.34375 -11.765625 C 7.34375 -12.109375 7.144531 -12.28125 6.75 -12.28125 Z M 6.75 -12.28125 "/></g></g></g><g fill="#ffffff" fill-opacity="1"><g transform="translate(121.614489, 26.433539)"><g><path d="M 5.109375 -2.96875 L 10.3125 -2.96875 L 10.3125 0 L 0.953125 0 L 0.953125 -15.25 L 10.09375 -15.25 L 10.09375 -12.28125 L 5.109375 -12.28125 L 5.109375 -9.171875 L 9.40625 -9.171875 L 9.40625 -6.203125 L 5.109375 -6.203125 Z M 5.109375 -2.96875 "/></g></g></g><g fill="#ffffff" fill-opacity="1"><g transform="translate(67.359381, 59.63291)"><g><path d="M 10.09375 -12.28125 L 5.109375 -12.28125 L 5.109375 -8.578125 L 9.4375 -8.578125 L 9.4375 -5.84375 L 5.109375 -5.84375 L 5.109375 0 L 0.953125 0 L 0.953125 -15.25 L 10.09375 -15.25 Z M 10.09375 -12.28125 "/></g></g></g><g fill="#ffffff" fill-opacity="1"><g transform="translate(79.839192, 59.63291)"><g><path d="M 7.296875 -15.25 L 11.453125 -15.25 L 11.453125 -2.953125 C 11.453125 -0.984375 10.289062 0 7.96875 0 L 4.4375 0 C 2.113281 0 0.953125 -0.984375 0.953125 -2.953125 L 0.953125 -15.25 L 5.109375 -15.25 L 5.109375 -3.5 C 5.109375 -3.144531 5.304688 -2.96875 5.703125 -2.96875 L 6.703125 -2.96875 C 7.097656 -2.96875 7.296875 -3.144531 7.296875 -3.5 Z M 7.296875 -15.25 "/></g></g></g><g fill="#ffffff" fill-opacity="1"><g transform="translate(94.268209, 59.63291)"><g><path d="M 5.109375 -2.96875 L 9.84375 -2.96875 L 9.84375 0 L 0.953125 0 L 0.953125 -15.25 L 5.109375 -15.25 Z M 5.109375 -2.96875 "/></g></g></g><g fill="#ffffff" fill-opacity="1"><g transform="translate(106.129974, 59.63291)"><g><path d="M 5.109375 -2.96875 L 9.84375 -2.96875 L 9.84375 0 L 0.953125 0 L 0.953125 -15.25 L 5.109375 -15.25 Z M 5.109375 -2.96875 "/></g></g></g><g fill="#ffffff" fill-opacity="1"><g transform="translate(62.817037, 37.925922)"><g><path d="M 0.296875 -3.71875 L 2 -3.71875 C 2.570312 -3.71875 2.859375 -3.476562 2.859375 -3 L 2.859375 -0.71875 C 2.859375 -0.238281 2.570312 0 2 0 L 0.296875 0 Z M 1.84375 -0.796875 L 1.84375 -2.921875 C 1.84375 -3.015625 1.789062 -3.0625 1.6875 -3.0625 L 1.296875 -3.0625 L 1.296875 -0.671875 L 1.6875 -0.671875 C 1.789062 -0.671875 1.84375 -0.710938 1.84375 -0.796875 Z M 1.84375 -0.796875 "/></g></g></g><g fill="#ffffff" fill-opacity="1"><g transform="translate(66.172395, 37.925922)"><g><path d="M 1.25 -0.71875 L 2.515625 -0.71875 L 2.515625 0 L 0.234375 0 L 0.234375 -3.71875 L 2.46875 -3.71875 L 2.46875 -3 L 1.25 -3 L 1.25 -2.234375 L 2.296875 -2.234375 L 2.296875 -1.515625 L 1.25 -1.515625 Z M 1.25 -0.71875 "/></g></g></g><g fill="#ffffff" fill-opacity="1"><g transform="translate(69.064148, 37.925922)"><g><path d="M 1.65625 -0.859375 L 1.65625 -1.375 C 1.65625 -1.457031 1.609375 -1.5 1.515625 -1.5 L 0.953125 -1.5 C 0.671875 -1.5 0.46875 -1.5625 0.34375 -1.6875 C 0.226562 -1.820312 0.171875 -2.003906 0.171875 -2.234375 L 0.171875 -3 C 0.171875 -3.476562 0.453125 -3.71875 1.015625 -3.71875 L 1.8125 -3.71875 C 2.375 -3.71875 2.65625 -3.476562 2.65625 -3 L 2.65625 -2.5625 L 1.640625 -2.5625 L 1.640625 -2.875 C 1.640625 -2.957031 1.59375 -3 1.5 -3 L 1.328125 -3 C 1.234375 -3 1.1875 -2.957031 1.1875 -2.875 L 1.1875 -2.3125 C 1.1875 -2.226562 1.234375 -2.1875 1.328125 -2.1875 L 1.875 -2.1875 C 2.164062 -2.1875 2.367188 -2.125 2.484375 -2 C 2.609375 -1.882812 2.671875 -1.710938 2.671875 -1.484375 L 2.671875 -0.71875 C 2.671875 -0.238281 2.390625 0 1.828125 0 L 1.03125 0 C 0.46875 0 0.1875 -0.238281 0.1875 -0.71875 L 0.1875 -1.171875 L 1.203125 -1.171875 L 1.203125 -0.859375 C 1.203125 -0.765625 1.25 -0.71875 1.34375 -0.71875 L 1.515625 -0.71875 C 1.609375 -0.71875 1.65625 -0.765625 1.65625 -0.859375 Z M 1.65625 -0.859375 "/></g></g></g><g fill="#ffffff" fill-opacity="1"><g transform="translate(72.199294, 37.925922)"><g><path d="M 1.25 -0.71875 L 2.515625 -0.71875 L 2.515625 0 L 0.234375 0 L 0.234375 -3.71875 L 2.46875 -3.71875 L 2.46875 -3 L 1.25 -3 L 1.25 -2.234375 L 2.296875 -2.234375 L 2.296875 -1.515625 L 1.25 -1.515625 Z M 1.25 -0.71875 "/></g></g></g><g fill="#ffffff" fill-opacity="1"><g transform="translate(75.091048, 37.925922)"><g><path d="M 1.9375 -3.71875 L 2.859375 -3.71875 L 2.859375 0 L 1.984375 0 L 1.15625 -1.953125 L 1.15625 0 L 0.234375 0 L 0.234375 -3.71875 L 1.09375 -3.71875 L 1.9375 -1.734375 Z M 1.9375 -3.71875 "/></g></g></g><g fill="#ffffff" fill-opacity="1"><g transform="translate(78.469587, 37.925922)"><g><path d="M 2 -3.71875 L 3.046875 -3.71875 L 2.140625 0 L 0.953125 0 L 0.046875 -3.71875 L 1.09375 -3.71875 L 1.546875 -1.234375 Z M 2 -3.71875 "/></g></g></g><g fill="#ffffff" fill-opacity="1"><g transform="translate(81.848126, 37.925922)"><g><path d="M 1.0625 -3.71875 L 1.921875 -3.71875 C 2.492188 -3.71875 2.78125 -3.476562 2.78125 -3 L 2.78125 -0.71875 C 2.78125 -0.238281 2.492188 0 1.921875 0 L 1.0625 0 C 0.5 0 0.21875 -0.238281 0.21875 -0.71875 L 0.21875 -3 C 0.21875 -3.476562 0.5 -3.71875 1.0625 -3.71875 Z M 1.765625 -0.859375 L 1.765625 -2.875 C 1.765625 -2.957031 1.71875 -3 1.625 -3 L 1.375 -3 C 1.28125 -3 1.234375 -2.957031 1.234375 -2.875 L 1.234375 -0.859375 C 1.234375 -0.765625 1.28125 -0.71875 1.375 -0.71875 L 1.625 -0.71875 C 1.71875 -0.71875 1.765625 -0.765625 1.765625 -0.859375 Z M 1.765625 -0.859375 "/></g></g></g><g fill="#ffffff" fill-opacity="1"><g transform="translate(85.128151, 37.925922)"><g><path d="M 1.25 -0.71875 L 2.40625 -0.71875 L 2.40625 0 L 0.234375 0 L 0.234375 -3.71875 L 1.25 -3.71875 Z M 1.25 -0.71875 "/></g></g></g><g fill="#ffffff" fill-opacity="1"><g transform="translate(87.817081, 37.925922)"><g><path d="M 2 -3.71875 L 3.046875 -3.71875 L 2.140625 0 L 0.953125 0 L 0.046875 -3.71875 L 1.09375 -3.71875 L 1.546875 -1.234375 Z M 2 -3.71875 "/></g></g></g><g fill="#ffffff" fill-opacity="1"><g transform="translate(91.19562, 37.925922)"><g><path d="M 0.234375 -3.71875 L 1.25 -3.71875 L 1.25 0 L 0.234375 0 Z M 0.234375 -3.71875 "/></g></g></g><g fill="#ffffff" fill-opacity="1"><g transform="translate(92.963138, 37.925922)"><g><path d="M 1.140625 0 L 0.234375 0 L 0.234375 -3.71875 L 1.34375 -3.71875 L 1.9375 -1.734375 L 2.546875 -3.71875 L 3.65625 -3.71875 L 3.65625 0 L 2.75 0 L 2.75 -2.359375 L 2.296875 -0.8125 L 1.59375 -0.8125 L 1.140625 -2.359375 Z M 1.140625 0 "/></g></g></g><g fill="#ffffff" fill-opacity="1"><g transform="translate(97.1356, 37.925922)"><g><path d="M 1.25 -0.71875 L 2.515625 -0.71875 L 2.515625 0 L 0.234375 0 L 0.234375 -3.71875 L 2.46875 -3.71875 L 2.46875 -3 L 1.25 -3 L 1.25 -2.234375 L 2.296875 -2.234375 L 2.296875 -1.515625 L 1.25 -1.515625 Z M 1.25 -0.71875 "/></g></g></g><g fill="#ffffff" fill-opacity="1"><g transform="translate(100.027352, 37.925922)"><g><path d="M 1.9375 -3.71875 L 2.859375 -3.71875 L 2.859375 0 L 1.984375 0 L 1.15625 -1.953125 L 1.15625 0 L 0.234375 0 L 0.234375 -3.71875 L 1.09375 -3.71875 L 1.9375 -1.734375 Z M 1.9375 -3.71875 "/></g></g></g><g fill="#ffffff" fill-opacity="1"><g transform="translate(103.405889, 37.925922)"><g><path d="M 2.46875 -3.71875 L 2.46875 -3 L 1.75 -3 L 1.75 0 L 0.734375 0 L 0.734375 -3 L 0.03125 -3 L 0.03125 -3.71875 Z M 2.46875 -3.71875 "/></g></g></g><g fill="#ffffff" fill-opacity="1"><g transform="translate(106.199126, 37.925922)"><g><path d="M 1.0625 -3.71875 L 1.921875 -3.71875 C 2.492188 -3.71875 2.78125 -3.476562 2.78125 -3 L 2.78125 -0.71875 C 2.78125 -0.238281 2.492188 0 1.921875 0 L 1.0625 0 C 0.5 0 0.21875 -0.238281 0.21875 -0.71875 L 0.21875 -3 C 0.21875 -3.476562 0.5 -3.71875 1.0625 -3.71875 Z M 1.765625 -0.859375 L 1.765625 -2.875 C 1.765625 -2.957031 1.71875 -3 1.625 -3 L 1.375 -3 C 1.28125 -3 1.234375 -2.957031 1.234375 -2.875 L 1.234375 -0.859375 C 1.234375 -0.765625 1.28125 -0.71875 1.375 -0.71875 L 1.625 -0.71875 C 1.71875 -0.71875 1.765625 -0.765625 1.765625 -0.859375 Z M 1.765625 -0.859375 "/></g></g></g><g fill="#ffffff" fill-opacity="1"><g transform="translate(109.479149, 37.925922)"><g/></g></g><g fill="#ffffff" fill-opacity="1"><g transform="translate(110.927934, 37.925922)"><g><path d="M 2.125 0 L 2.015625 -0.5625 L 1.125 -0.5625 L 1 0 L 0 0 L 0.953125 -3.71875 L 2.1875 -3.71875 L 3.140625 0 Z M 1.28125 -1.28125 L 1.859375 -1.28125 L 1.578125 -2.609375 Z M 1.28125 -1.28125 "/></g></g></g><g fill="#ffffff" fill-opacity="1"><g transform="translate(114.364422, 37.925922)"><g><path d="M 1.140625 0 L 0.234375 0 L 0.234375 -3.71875 L 1.34375 -3.71875 L 1.9375 -1.734375 L 2.546875 -3.71875 L 3.65625 -3.71875 L 3.65625 0 L 2.75 0 L 2.75 -2.359375 L 2.296875 -0.8125 L 1.59375 -0.8125 L 1.140625 -2.359375 Z M 1.140625 0 "/></g></g></g><g fill="#ffffff" fill-opacity="1"><g transform="translate(118.536882, 37.925922)"><g><path d="M 1.796875 -2.328125 L 1.796875 -2.921875 C 1.796875 -3.015625 1.742188 -3.0625 1.640625 -3.0625 L 1.234375 -3.0625 L 1.234375 -2.203125 L 1.640625 -2.203125 C 1.742188 -2.203125 1.796875 -2.242188 1.796875 -2.328125 Z M 1.796875 -0.796875 L 1.796875 -1.40625 C 1.796875 -1.488281 1.742188 -1.53125 1.640625 -1.53125 L 1.234375 -1.53125 L 1.234375 -0.671875 L 1.640625 -0.671875 C 1.742188 -0.671875 1.796875 -0.710938 1.796875 -0.796875 Z M 0.234375 -3.71875 L 1.9375 -3.71875 C 2.5 -3.71875 2.78125 -3.476562 2.78125 -3 L 2.78125 -2.53125 C 2.78125 -2.1875 2.691406 -1.96875 2.515625 -1.875 C 2.617188 -1.820312 2.6875 -1.75 2.71875 -1.65625 C 2.757812 -1.5625 2.78125 -1.4375 2.78125 -1.28125 L 2.78125 -0.71875 C 2.78125 -0.238281 2.5 0 1.9375 0 L 0.234375 0 Z M 0.234375 -3.71875 "/></g></g></g></svg>